<?xml version="1.0" standalone="no"?>
<!DOCTYPE svg PUBLIC "-//W3C//DTD SVG 20010904//EN"
 "http://www.w3.org/TR/2001/REC-SVG-20010904/DTD/svg10.dtd">
<svg version="1.0" xmlns="http://www.w3.org/2000/svg"
 width="678.000000pt" height="728.000000pt" viewBox="0 0 678.000000 728.000000"
 preserveAspectRatio="xMidYMid meet">

<g transform="translate(0.000000,728.000000) scale(0.100000,-0.100000)"
fill="#000000" stroke="none">
<path d="M915 5219 c-27 -6 -54 -14 -60 -18 -5 -5 -33 -14 -62 -20 -37 -9 -60
-22 -83 -47 -38 -42 -70 -114 -70 -159 0 -18 -9 -61 -20 -95 -22 -70 -16 -122
19 -154 30 -27 54 -16 79 39 27 55 40 68 62 59 8 -3 49 -14 92 -25 65 -16 82
-17 115 -7 38 13 38 14 43 74 3 34 11 68 19 77 19 24 77 21 120 -5 35 -20 81
-65 81 -77 0 -3 16 -7 36 -9 l35 -2 -18 27 c-10 16 -32 57 -48 93 -41 90 -92
176 -118 201 -52 49 -131 66 -222 48z"/>
<path d="M2755 4424 c-6 -1 -26 -5 -45 -8 l-35 -6 0 -172 c0 -240 -17 -278
-149 -345 -28 -14 -53 -27 -55 -29 -9 -8 94 -105 134 -129 22 -12 74 -30 115
-38 55 -11 131 -42 284 -116 l210 -101 30 27 c16 16 40 40 52 54 l23 25 111
-19 c104 -18 115 -18 145 -4 55 26 106 139 117 255 3 31 0 35 -35 47 -79 27
-411 259 -525 367 -74 70 -142 119 -208 150 -56 26 -145 48 -169 42z"/>
<path d="M4820 3520 c-14 -4 -47 -9 -75 -9 -27 -1 -60 -4 -71 -7 -21 -6 -21
-7 -6 -54 22 -68 5 -107 -53 -122 l-41 -11 39 -78 c51 -98 56 -176 18 -256
-13 -29 -21 -58 -18 -66 7 -18 116 -29 176 -18 27 6 55 20 74 40 27 26 32 40
39 103 4 40 4 156 1 258 -5 168 -7 187 -26 208 -11 12 -23 22 -26 21 -3 -1
-17 -5 -31 -9z"/>
<path d="M4198 3359 c-6 -54 -32 -88 -70 -89 -13 0 -10 -12 18 -69 39 -79 42
-121 14 -176 -11 -22 -20 -45 -20 -51 0 -20 90 -34 137 -22 68 17 83 41 99
165 26 197 33 257 31 259 -1 1 -40 7 -87 12 -47 6 -92 13 -101 16 -14 6 -17
-2 -21 -45z"/>
<path d="M1208 3163 l-26 -28 5 -143 6 -143 31 -24 c33 -25 57 -28 337 -41
l117 -5 22 31 c16 23 26 28 33 21 7 -7 56 -11 123 -11 l112 0 26 31 c14 17 26
39 26 50 0 11 8 22 18 25 9 3 25 10 35 15 19 10 21 2 11 -50 -5 -21 -12 -31
-25 -31 -27 0 -23 -16 10 -39 25 -18 44 -21 129 -21 l100 0 30 34 c41 47 49
114 27 220 -25 118 -35 126 -166 126 -99 0 -107 -2 -128 -24 -23 -24 -23 -24
-3 -35 14 -8 21 -23 23 -55 4 -39 2 -43 -13 -35 -9 5 -23 6 -32 3 -11 -4 -16
3 -19 28 -2 21 -4 12 -5 -25 -4 -133 -73 -204 -172 -177 -98 26 -115 95 -55
214 19 39 35 80 35 93 0 20 -5 23 -40 23 l-40 0 -1 -52 c-1 -61 -17 -115 -18
-61 -1 24 -10 39 -38 63 -38 31 -39 32 -119 25 -66 -5 -83 -3 -94 10 -10 12
-36 15 -124 15 -109 0 -113 -1 -138 -27z m207 -86 c16 -83 9 -256 -9 -236 -2
2 -7 64 -11 137 -5 90 -3 132 4 132 5 0 13 -15 16 -33z"/>
<path d="M584 2836 c-11 -8 -26 -33 -33 -57 -15 -49 -30 -42 -38 20 -4 25 -11
41 -19 41 -17 0 -18 4 6 -65 29 -84 27 -95 -14 -95 -42 0 -79 -31 -95 -79 -25
-77 49 -186 143 -210 47 -12 64 -10 118 11 58 22 91 125 62 196 -20 52 -58 80
-118 88 -52 8 -60 20 -18 30 15 4 39 13 54 20 31 16 74 82 62 94 -18 18 -88
22 -110 6z"/>
</g>
</svg>
